<?xml version="1.0" encoding="iso-8859-1"?>
<!-- Generator: Adobe Illustrator 18.0.0, SVG Export Plug-In . SVG Version: 6.00 Build 0)  -->
<!DOCTYPE svg PUBLIC "-//W3C//DTD SVG 1.1//EN" "http://www.w3.org/Graphics/SVG/1.1/DTD/svg11.dtd">
<svg version="1.1" id="Capa_1" xmlns="http://www.w3.org/2000/svg" xmlns:xlink="http://www.w3.org/1999/xlink" x="0px" y="0px"
	 viewBox="0 0 39.936 39.937" style="enable-background:new 0 0 39.936 39.937;" xml:space="preserve">
<g id="dribbble">
	<g>
		<path style="fill-rule:evenodd;clip-rule:evenodd;" d="M33.688,5.483L32.777,4.62l-0.03,0.052C29.153,1.661,24.669,0,19.968,0
			c-2.553,0-5.038,0.506-7.409,1.459l-0.027-0.027L11.9,1.711C6.02,4.313,1.729,9.609,0.423,15.877l-0.162,0.778l0.039,0.018
			C0.117,17.765,0,18.868,0,19.968c0,5.847,2.527,11.311,6.952,15.118l-0.009,0.021l0.602,0.479
			c3.574,2.846,7.87,4.351,12.423,4.351c2.404,0,4.776-0.443,7.076-1.318l0.632-0.245v-0.017c6.56-2.66,11.062-8.504,12.031-15.588
			l0.054,0.019l0.099-1.296c0.039-0.504,0.076-1.008,0.076-1.522C39.936,14.446,37.717,9.302,33.688,5.483z M37.676,19.968v0.1
			c-2-0.681-4.613-1.026-7.054-1.026c-2.118,0-4.195,0.263-6.253,0.783c-0.397-1.063-0.794-2.101-1.246-3.106l0.065-0.029
			l-0.022-0.047c4.05-2.026,7.391-5.048,9.882-8.831C36.126,11.14,37.676,15.411,37.676,19.968z M31.69,6.399
			c-2.32,3.641-5.541,6.54-9.399,8.461c-2.167-4.314-4.929-8.286-8.232-11.837C15.963,2.355,17.942,2,19.968,2
			C24.296,2,28.419,3.567,31.69,6.399z M12.084,3.832c3.388,3.532,6.208,7.515,8.398,11.857c-2.782,1.108-5.714,1.669-8.729,1.669
			c-3.188,0-6.275-0.625-9.19-1.857C3.862,10.428,7.355,6.146,12.084,3.832z M2,19.968c0-0.82,0.078-1.641,0.191-2.459
			c3.042,1.227,6.252,1.849,9.562,1.849c3.311,0,6.526-0.63,9.576-1.862c0.426,0.941,0.826,1.91,1.202,2.906
			c-6.406,2.163-11.671,6.74-14.706,12.786C4.11,29.784,2,25.036,2,19.968z M9.41,34.494c2.77-5.791,7.732-10.181,13.802-12.217
			c1.577,4.748,2.412,9.687,2.484,14.706c-1.869,0.633-3.793,0.954-5.728,0.954C16.132,37.937,12.498,36.749,9.41,34.494z
			 M27.645,36.202c-0.141-4.931-0.986-9.783-2.528-14.459c4.172-1.021,8.563-0.887,12.651,0.382
			C37.033,28.396,33.253,33.638,27.645,36.202z"/>
	</g>
</g>
<g>
</g>
<g>
</g>
<g>
</g>
<g>
</g>
<g>
</g>
<g>
</g>
<g>
</g>
<g>
</g>
<g>
</g>
<g>
</g>
<g>
</g>
<g>
</g>
<g>
</g>
<g>
</g>
<g>
</g>
</svg>
