<?xml version="1.0" encoding="iso-8859-1"?>
<!-- Generator: Adobe Illustrator 18.0.0, SVG Export Plug-In . SVG Version: 6.00 Build 0)  -->
<!DOCTYPE svg PUBLIC "-//W3C//DTD SVG 1.1//EN" "http://www.w3.org/Graphics/SVG/1.1/DTD/svg11.dtd">
<svg version="1.1" id="Capa_1" xmlns="http://www.w3.org/2000/svg" xmlns:xlink="http://www.w3.org/1999/xlink" x="0px" y="0px"
	 viewBox="0 0 22.494 18.467" style="enable-background:new 0 0 22.494 18.467;" xml:space="preserve">
<path d="M7.261,18.467c-2.5,0-4.931-0.712-7.031-2.06c-0.196-0.126-0.279-0.37-0.201-0.59s0.301-0.36,0.53-0.327
	c1.761,0.205,3.599-0.153,5.141-1.035c-1.525-0.458-2.765-1.639-3.266-3.205c-0.054-0.169-0.015-0.353,0.103-0.485
	c0.072-0.08,0.167-0.134,0.27-0.156C1.616,9.702,0.864,8.27,0.864,6.697c0-0.177,0.094-0.368,0.247-0.458s0.342-0.118,0.496-0.034
	C1.651,6.23,1.696,6.254,1.741,6.276C1.2,5.477,0.9,4.521,0.9,3.523c0-0.866,0.229-1.72,0.665-2.468
	c0.082-0.142,0.229-0.234,0.393-0.247C2.121,0.796,2.28,0.864,2.384,0.99c2.023,2.481,4.951,4.054,8.109,4.377
	c-0.014-0.151-0.021-0.305-0.021-0.457c0-2.707,2.203-4.91,4.91-4.91c1.257,0,2.474,0.487,3.382,1.347
	c0.835-0.191,1.635-0.512,2.382-0.955c0.179-0.104,0.403-0.089,0.566,0.039c0.162,0.13,0.228,0.346,0.165,0.544
	c-0.159,0.497-0.395,0.962-0.698,1.379c0.208-0.072,0.412-0.153,0.613-0.242c0.201-0.092,0.442-0.036,0.585,0.136
	c0.143,0.17,0.156,0.415,0.033,0.6c-0.581,0.866-1.289,1.621-2.106,2.248c0.003,0.108,0.004,0.217,0.004,0.325
	C20.308,11.833,15.427,18.467,7.261,18.467z M2.531,16.499c1.487,0.637,3.092,0.968,4.73,0.968c7.541,0,12.047-6.125,12.047-12.047
	c0-0.183-0.005-0.367-0.012-0.55c-0.007-0.168,0.071-0.328,0.207-0.426c0.36-0.26,0.698-0.547,1.011-0.859
	c-0.326,0.075-0.657,0.133-0.992,0.173c-0.232,0.033-0.456-0.11-0.533-0.334c-0.076-0.223,0.014-0.469,0.216-0.591
	c0.397-0.238,0.745-0.542,1.031-0.893c-0.499,0.191-1.013,0.34-1.538,0.442c-0.168,0.035-0.343-0.021-0.461-0.148
	C17.501,1.45,16.46,1,15.382,1c-2.156,0-3.91,1.754-3.91,3.91c0,0.299,0.034,0.6,0.102,0.892c0.035,0.152-0.003,0.313-0.104,0.434
	c-0.1,0.12-0.251,0.203-0.408,0.178C7.649,6.242,4.434,4.725,2.124,2.217C1.976,2.635,1.9,3.077,1.9,3.523
	c0,1.312,0.65,2.527,1.738,3.254c0.186,0.124,0.267,0.355,0.199,0.568c-0.068,0.212-0.279,0.34-0.491,0.348
	c-0.477-0.015-0.951-0.1-1.403-0.252c0.309,1.549,1.5,2.777,3.056,3.09c0.228,0.046,0.394,0.241,0.401,0.473
	c0.008,0.231-0.144,0.438-0.367,0.5c-0.431,0.117-0.884,0.183-1.327,0.174c0.67,1.185,1.928,1.956,3.332,1.984
	c0.211,0.004,0.397,0.142,0.464,0.342s0,0.422-0.166,0.552C5.931,15.657,4.285,16.319,2.531,16.499z"/>
<g>
</g>
<g>
</g>
<g>
</g>
<g>
</g>
<g>
</g>
<g>
</g>
<g>
</g>
<g>
</g>
<g>
</g>
<g>
</g>
<g>
</g>
<g>
</g>
<g>
</g>
<g>
</g>
<g>
</g>
</svg>
