<?xml version="1.0" encoding="utf-8"?>
<!-- Generator: Adobe Illustrator 18.0.0, SVG Export Plug-In . SVG Version: 6.00 Build 0)  -->
<!DOCTYPE svg PUBLIC "-//W3C//DTD SVG 1.1//EN" "http://www.w3.org/Graphics/SVG/1.1/DTD/svg11.dtd">
<svg version="1.1" id="Layer_1" xmlns="http://www.w3.org/2000/svg" xmlns:xlink="http://www.w3.org/1999/xlink" x="0px" y="0px"
	 viewBox="-18.7 -18.8 141 141" enable-background="new -18.7 -18.8 141 141" xml:space="preserve">
<g id="Captions">
</g>
<g>
	<g>
		<path d="M65.4,63.1l-6.7-6.7c1.5-2,2.4-4.4,2.4-7c0-6.4-5.2-11.6-11.6-11.6c-6.4,0-11.6,5.2-11.6,11.6s5.2,11.6,11.6,11.6
			c2.6,0,5.1-0.9,7.1-2.4l6.7,6.7c0.3,0.3,0.7,0.4,1.1,0.4c0.4,0,0.8-0.1,1.1-0.4C66,64.6,66,63.7,65.4,63.1z M40.9,49.3
			c0-4.7,3.8-8.6,8.6-8.6s8.6,3.8,8.6,8.6s-3.8,8.6-8.6,8.6S40.9,54,40.9,49.3z"/>
	</g>
	<path d="M51.8,122.2c38.9,0,70.5-31.6,70.5-70.5S90.8-18.8,51.8-18.8s-70.5,31.6-70.5,70.5S12.9,122.2,51.8,122.2z M51.8-17.3
		c38,0,68.9,30.9,68.9,68.9s-30.9,68.9-68.9,68.9s-68.9-30.9-68.9-68.9S13.8-17.3,51.8-17.3z"/>
</g>
</svg>
